<?xml version="1.0" encoding="UTF-8"?>
<svg version="1.1" xmlns="http://www.w3.org/2000/svg" width="96" height="96">
<path d="M0 0 C1 2 1 2 0.44140625 3.99609375 C0.15136719 4.80175781 -0.13867188 5.60742188 -0.4375 6.4375 C-3.9580402 17.81406047 -1.71995863 28.09650128 3.28515625 38.73046875 C10.13937334 51.04514847 21.12722154 59.58690489 34.3671875 64.1640625 C47.24701747 67.46895892 59.85776919 67.10419009 71.6796875 60.50390625 C73.85599523 59.0732515 75.93707075 57.58849789 78 56 C79.11181641 55.16662109 79.11181641 55.16662109 80.24609375 54.31640625 C80.82488281 53.88199219 81.40367188 53.44757813 82 53 C80.71630721 57.70916178 79.00738868 60.56518659 75.6875 64.125 C74.92824219 64.95257813 74.16898437 65.78015625 73.38671875 66.6328125 C69.95182343 70.03959902 66.47548427 72.97683557 62.125 75.125 C61.50882812 75.43695313 60.89265625 75.74890625 60.2578125 76.0703125 C49.23979099 80.60714489 34.05680702 81.27389897 22.75 77.375 C20.3125 76.265625 20.3125 76.265625 18 75 C17.13375 74.54109375 16.2675 74.0821875 15.375 73.609375 C12.833248 72.17207476 10.4142052 70.64132712 8 69 C7.07767578 68.37544922 7.07767578 68.37544922 6.13671875 67.73828125 C-2.90536309 60.81641171 -10.05227266 49.1317132 -12 38 C-13.33371126 24.82998104 -12.07993885 14.9794257 -3.75 4.375 C-2.51194907 2.90650893 -1.26611998 1.44436017 0 0 Z " fill="#1165A9" transform="translate(12,15)"/>
<path d="M0 0 C0.33 0.66 0.66 1.32 1 2 C0.34261652 3.33793467 -0.32577382 4.67047329 -1 6 C-3.03190392 15.56369813 -1.4243633 23.43309778 3.6875 31.6875 C10.36968738 41.02606311 19.10078428 46.83671448 30.4296875 48.7421875 C38.25548215 49.52714563 44.01947543 47.93948708 50.87109375 44.15625 C53 43 53 43 56 42 C57.20882096 39.99983534 57.20882096 39.99983534 58 38 C59 41 59 41 58.1015625 43.05078125 C53.21943479 50.52896099 47.39972701 54.96151354 39 58 C26.81070795 60.29986643 16.3499225 58.94897105 6 52 C-2.68289279 45.58561073 -7.22787999 38.65130668 -9.55859375 28.08984375 C-10.71634687 19.98557192 -9.53666718 12.84977051 -5 6 C-3.41417491 3.89607865 -1.76558121 1.9617569 0 0 Z " fill="#1165A9" transform="translate(37,6)"/>
<path d="M0 0 C0.66 0.33 1.32 0.66 2 1 C1.67 1.99 1.34 2.98 1 4 C0.21560652 10.51946712 1.18876044 15.60762701 5 21 C10.57697068 26.57697068 17.07234278 29.72663251 25 30 C29.85202755 28.92909409 34.27765889 27.39865927 38 24 C36.61105456 29.24712722 33.35358037 32.05022718 29 35 C22.65242964 37.754606 16.34548903 37.36773486 9.828125 35.31640625 C3.30358404 32.47140293 -1.33271302 27.4070647 -4.4375 21.0625 C-5.86534926 13.28865401 -5.28982429 7.75345832 -1 1 C-0.67 0.67 -0.34 0.34 0 0 Z " fill="#1064A9" transform="translate(56,2)"/>
</svg>
