<?xml version="1.0" encoding="UTF-8"?>
<svg version="1.1" xmlns="http://www.w3.org/2000/svg" width="512" height="512">
<path d="M0 0 C8.34745392 -0.09132142 16.69001919 -0.05410984 25.03710938 0.05029297 C26.17681183 0.06319366 26.17681183 0.06319366 27.33953857 0.07635498 C217.98266054 2.27192517 217.98266054 2.27192517 260.34960938 42.73779297 C267.20935431 49.89402983 267.47629986 56.39143144 267.44116211 65.90527344 C267.45145699 67.84777985 267.45145699 67.84777985 267.46195984 69.82952881 C267.47986287 73.37099221 267.47872811 76.91220744 267.47301745 80.45370245 C267.46992084 83.41577875 267.47602343 86.3778077 267.4820562 89.33987725 C267.496091 96.33144281 267.49454944 103.32288616 267.4831543 110.31445312 C267.47167927 117.51386366 267.4857405 124.7129014 267.51255077 131.9122628 C267.53474515 138.10526546 267.54133661 144.29815144 267.53547436 150.49119103 C267.53211184 154.18474831 267.53447229 157.87806679 267.55172539 161.57159042 C267.57013985 165.69347283 267.55596918 169.81463557 267.53881836 173.93652344 C267.54848633 175.15133392 267.5581543 176.36614441 267.56811523 177.61776733 C267.5081879 184.50269049 266.69348807 189.21635943 263.03710938 195.05029297 C262.35912216 196.3779057 261.68953411 197.70993324 261.03710938 199.05029297 C261.65585937 199.77216797 262.27460938 200.49404297 262.91210938 201.23779297 C267.2558107 206.98680943 267.33447905 211.88464952 267.32763672 218.85424805 C267.33771255 220.32836403 267.33771255 220.32836403 267.34799194 221.83226013 C267.36697552 225.0781664 267.37089643 228.32386591 267.37304688 231.56982422 C267.37947483 233.83037908 267.38620319 236.0909331 267.39321899 238.35148621 C267.40519287 243.09005664 267.40889973 247.82855417 267.40771484 252.56713867 C267.40751172 258.62990487 267.43480717 264.69220198 267.46925926 270.75485706 C267.49153133 275.42439406 267.49555227 280.09381826 267.49449539 284.76340294 C267.49685113 286.99804996 267.50567311 289.2327001 267.52116013 291.46729469 C267.54082446 294.59791223 267.53497963 297.7275194 267.52294922 300.8581543 C267.53418823 301.77531219 267.54542725 302.69247009 267.55700684 303.63742065 C267.49749875 309.75221584 266.12791371 313.81995139 263.03710938 319.05029297 C262.36185436 320.37929744 261.69288302 321.71156852 261.03710938 323.05029297 C261.65585937 323.79279297 262.27460938 324.53529297 262.91210938 325.30029297 C265.78937023 329.02380702 267.28006803 331.63865183 267.31799316 336.3742981 C267.32941345 337.23200302 267.34083374 338.08970795 267.3526001 338.97340393 C267.35483582 339.90643845 267.35707153 340.83947296 267.359375 341.80078125 C267.36930481 342.7899202 267.37923462 343.77905914 267.38946533 344.798172 C267.41868586 348.07234481 267.43231059 351.34632364 267.44335938 354.62060547 C267.45486678 356.90021773 267.4663822 359.17982995 267.47790527 361.45944214 C267.49892058 366.2426646 267.51060808 371.0258199 267.51757812 375.80908203 C267.52852885 381.92232335 267.57654385 388.03466951 267.63352203 394.14763069 C267.67087692 398.85928895 267.68119148 403.57073413 267.68424988 408.28252792 C267.69028407 410.5350927 267.70627745 412.78765457 267.73262024 415.04007339 C267.7669499 418.20187442 267.76293275 421.36152285 267.75 424.5234375 C267.76842957 425.44432663 267.78685913 426.36521576 267.80584717 427.31401062 C267.70114816 435.53539133 264.28050268 441.46307705 258.82617188 447.49560547 C200.95914076 492.41044912 94.54189992 487.31134056 25.03710938 488.05029297 C24.26812317 488.05889343 23.49913696 488.0674939 22.70684814 488.07635498 C12.14881201 488.18999305 1.59494085 488.17818863 -8.96289062 488.05029297 C-9.69348694 488.0416925 -10.42408325 488.03309204 -11.17681885 488.02423096 C-187.36555877 485.82800542 -187.36555877 485.82800542 -236.75195312 447.49560547 C-237.84636719 446.28517578 -237.84636719 446.28517578 -238.96289062 445.05029297 C-239.45842941 444.51907837 -239.9539682 443.98786377 -240.46452332 443.44055176 C-247.3934297 434.32044935 -245.8075834 422.69231576 -245.72460938 411.82373047 C-245.72611339 409.54790038 -245.72954732 407.27207082 -245.7348175 404.99624634 C-245.73913771 400.24023503 -245.72239227 395.48490444 -245.69018555 390.72900391 C-245.65036135 384.64486518 -245.65973089 378.56199895 -245.68442059 372.47781944 C-245.69862627 367.78333165 -245.68849956 363.08913932 -245.67090797 358.39467239 C-245.66507509 356.15167573 -245.66633542 353.90864863 -245.67493248 351.66566086 C-245.68295643 348.52805458 -245.65859851 345.39229287 -245.62573242 342.25488281 C-245.63428253 341.3362294 -245.64283264 340.41757599 -245.65164185 339.47108459 C-245.54947187 333.79739116 -244.48101252 330.37817032 -241.03333759 325.83216286 C-239.61958104 323.82526551 -239.61958104 323.82526551 -239.96289062 320.05029297 C-241.24800936 318.01897625 -242.58165099 316.01751305 -243.96289062 314.05029297 C-244.8775341 311.30636256 -245.09567728 309.66120575 -245.11679077 306.83308411 C-245.12539124 305.97386353 -245.1339917 305.11464294 -245.14285278 304.22938538 C-245.14711273 303.28961349 -245.15137268 302.34984161 -245.15576172 301.3815918 C-245.16393921 300.38938629 -245.1721167 299.39718079 -245.18054199 298.37490845 C-245.20538833 295.08571984 -245.22191103 291.7965744 -245.23632812 288.50732422 C-245.2416518 287.38370672 -245.24697548 286.26008923 -245.25246048 285.10242271 C-245.27919002 279.15398211 -245.29856472 273.20556246 -245.31298828 267.25708008 C-245.32962652 261.11797461 -245.37439863 254.97940694 -245.42535973 248.84050465 C-245.45904422 244.11607763 -245.47056713 239.39177802 -245.47621536 234.66724205 C-245.48292549 232.40465884 -245.49814121 230.14208393 -245.52210617 227.87961769 C-245.55378216 224.70795736 -245.55379018 221.53774428 -245.54638672 218.3659668 C-245.57099472 216.97149071 -245.57099472 216.97149071 -245.59609985 215.54884338 C-245.5416405 209.83140222 -244.51895707 206.40584381 -241.03612709 201.82825756 C-239.61837041 199.82567678 -239.61837041 199.82567678 -239.96289062 196.05029297 C-241.02730564 194.31776278 -241.02730564 194.31776278 -242.42146301 192.62167358 C-246.06844905 187.02649971 -245.67135561 181.40676611 -245.62573242 174.90820312 C-245.63610031 173.60636581 -245.6464682 172.3045285 -245.65715027 170.96324158 C-245.68408555 167.41128792 -245.67952758 163.86003993 -245.66744971 160.30802965 C-245.66029024 157.33358683 -245.66883692 154.35927222 -245.67735511 151.38483942 C-245.69727281 144.36239798 -245.6917788 137.34029723 -245.66967773 130.31787109 C-245.64732898 123.09441538 -245.66490126 115.8718541 -245.70272702 108.64848292 C-245.73404947 102.42734114 -245.74185006 96.20647494 -245.73077327 89.98526418 C-245.72431284 86.27815784 -245.72615888 82.57156687 -245.75009727 78.86452103 C-245.77546249 74.72618328 -245.75162847 70.58949112 -245.72338867 66.45117188 C-245.7371051 65.23734329 -245.75082153 64.02351471 -245.76495361 62.77290344 C-245.64127892 53.67663582 -243.22247391 47.48876817 -236.8948164 40.89536476 C-184.913506 -7.19328853 -65.38228628 0.82976534 0 0 Z " fill="#37484F" transform="translate(244.962890625,11.94970703125)"/>
<path d="M0 0 C4.11104216 1.28129954 8.14647634 2.70295563 12.18359375 4.19921875 C38.32713348 13.56760233 65.76378027 18.4944026 93.24609375 22.01171875 C94.45048096 22.16785645 95.65486816 22.32399414 96.89575195 22.48486328 C118.13558953 25.2119491 139.45771233 27.0232151 160.84375 28.0859375 C162.13963547 28.15043626 162.13963547 28.15043626 163.46170044 28.21623802 C186.21658063 29.31774252 208.96930939 29.36545848 231.74609375 29.32421875 C233.92342118 29.32199515 236.10074865 29.31981869 238.27807617 29.31768799 C269.01104784 29.27602616 299.64128596 29.11105873 330.24609375 26.01171875 C331.24964905 25.91225952 332.25320435 25.81280029 333.28717041 25.71032715 C361.22896521 22.92361113 388.82343376 19.08152695 416.24609375 13.01171875 C417.26703125 12.79161133 418.28796875 12.57150391 419.33984375 12.34472656 C430.28832081 9.95743574 440.66397087 6.62678762 451.09326172 2.51391602 C452.40641357 2.00622681 452.40641357 2.00622681 453.74609375 1.48828125 C454.51953125 1.17971191 455.29296875 0.87114258 456.08984375 0.55322266 C458.66171364 -0.09265681 459.81013891 -0.03044943 462.24609375 1.01171875 C464.33381653 2.51983643 464.33381653 2.51983643 466.24609375 5.01171875 C466.65603953 8.0354227 466.82365676 10.698661 466.8112793 13.72412109 C466.82310745 14.60264236 466.83493561 15.48116364 466.84712219 16.38630676 C466.88001881 19.29034397 466.88296608 22.19344495 466.8828125 25.09765625 C466.89312638 27.11781193 466.90418935 29.13796391 466.91596985 31.15811157 C466.93540991 35.39326618 466.93882096 39.62809052 466.93237305 43.86328125 C466.92637765 49.28667526 466.97059901 54.70835727 467.02826214 60.13139915 C467.06526072 64.30423807 467.07016389 68.47666435 467.06598854 72.64964676 C467.06885981 74.64873608 467.08292976 76.64784219 467.10846519 78.64677048 C467.14046294 81.44586322 467.12788217 84.24142551 467.10424805 87.04052734 C467.13257217 88.2751194 467.13257217 88.2751194 467.16146851 89.53465271 C467.09308122 92.94509694 466.96614044 95.13790766 464.7515049 97.82547379 C460.923255 101.18158698 456.68573007 103.72552732 452.12109375 105.94921875 C451.09302612 106.45171143 451.09302612 106.45171143 450.04418945 106.96435547 C432.65641327 115.17713206 413.9983906 119.22991056 395.24609375 123.01171875 C394.31216797 123.20362793 393.37824219 123.39553711 392.41601562 123.59326172 C368.39174945 128.47678161 344.04745679 130.96888522 319.62109375 132.69921875 C318.76519653 132.75997589 317.90929932 132.82073303 317.02746582 132.8833313 C296.59385466 134.3119545 276.1911228 135.17002303 255.70703125 135.21484375 C253.70489989 135.22186831 251.70276875 135.22895511 249.70063782 135.23609924 C243.34078648 135.25548497 236.98097166 135.26053302 230.62109375 135.26171875 C228.99586477 135.26238153 228.99586477 135.26238153 227.33780289 135.26305771 C194.22432131 135.27013905 161.24486838 135.07327294 128.24609375 132.01171875 C127.29132141 131.92450562 126.33654907 131.83729248 125.35284424 131.74743652 C21.53296773 122.16750468 21.53296773 122.16750468 -6.24913788 97.83094978 C-8.96911941 94.54255344 -8.71462722 91.17044395 -8.62792969 87.05639648 C-8.63698334 86.17597687 -8.64603699 85.29555725 -8.65536499 84.38845825 C-8.67591334 81.48967359 -8.64590447 78.59394909 -8.61328125 75.6953125 C-8.61291739 73.67562264 -8.61492579 71.65593109 -8.61920166 69.63624573 C-8.62049509 65.40853132 -8.59755085 61.18185743 -8.55664062 56.9543457 C-8.50553375 51.53783119 -8.50777082 46.12295159 -8.52724838 40.70628262 C-8.5375484 36.53772289 -8.52312109 32.36953852 -8.50086212 28.20103645 C-8.49250315 26.20397675 -8.49100673 24.20687605 -8.49651337 22.20980644 C-8.49979826 19.41826007 -8.47065539 16.62889565 -8.43261719 13.83764648 C-8.43959625 13.01413193 -8.44657532 12.19061737 -8.45376587 11.34214783 C-8.35876412 7.07061689 -8.09730026 5.45371198 -5.38360596 1.96083069 C-2.75390625 0.01171875 -2.75390625 0.01171875 0 0 Z " fill="#DFDFDF" transform="translate(26.75390625,344.98828125)"/>
<path d="M0 0 C3.20427039 1.01787497 6.19171092 2.22977883 9.26171875 3.6015625 C74.30687439 31.00051868 155.53803526 29.19165786 224.74829102 29.10693359 C229.45843693 29.10121603 234.16852664 29.10465167 238.87867069 29.11035824 C267.8483777 29.14044284 296.62051121 28.48129933 325.51171875 26.1640625 C326.617966 26.07630554 327.72421326 25.98854858 328.86398315 25.89813232 C345.72598134 24.54827479 362.39043442 22.81518923 379.07421875 19.9765625 C380.40865974 19.75938139 381.74330626 19.54346044 383.078125 19.32861328 C406.65430804 15.52605796 430.68281165 11.63179193 452.69921875 2.02172852 C457.49683364 -0.03967329 457.49683364 -0.03967329 460.296875 0.0390625 C462.89408363 1.4090187 464.25411487 2.625165 466.07421875 4.9765625 C466.48416453 8.00026645 466.65178176 10.66350475 466.6394043 13.68896484 C466.65123245 14.56748611 466.66306061 15.44600739 466.67524719 16.35115051 C466.70814381 19.25518772 466.71109108 22.1582887 466.7109375 25.0625 C466.72125138 27.08265568 466.73231435 29.10280766 466.74409485 31.12295532 C466.76353491 35.35810993 466.76694596 39.59293427 466.76049805 43.828125 C466.75450265 49.25151901 466.79872401 54.67320102 466.85638714 60.0962429 C466.89338572 64.26908182 466.89828889 68.4415081 466.89411354 72.61449051 C466.89698481 74.61357983 466.91105476 76.61268594 466.93659019 78.61161423 C466.96858794 81.41070697 466.95600717 84.20626926 466.93237305 87.00537109 C466.96069717 88.23996315 466.96069717 88.23996315 466.98959351 89.49949646 C466.92120622 92.90994069 466.79426544 95.10275141 464.5796299 97.79031754 C460.75145171 101.14636786 456.51390163 103.69062019 451.94921875 105.9140625 C451.26166504 106.24978271 450.57411133 106.58550293 449.86572266 106.93139648 C414.85995525 123.45433646 374.39568512 127.40514753 336.32421875 131.1640625 C335.15614685 131.28241959 335.15614685 131.28241959 333.96447754 131.40316772 C300.76717053 134.71789275 267.43076426 135.35838373 234.09362793 135.29462051 C231.08251898 135.28896062 228.07141572 135.2861519 225.06030273 135.28353882 C43.81700254 135.05531723 43.81700254 135.05531723 -6.06651306 98.40367126 C-8.76013658 94.88738605 -8.49272072 91.50125811 -8.45922852 87.24829102 C-8.46784409 86.36816345 -8.47645966 85.48803589 -8.4853363 84.58123779 C-8.5080359 81.6723488 -8.50124984 78.76442013 -8.4921875 75.85546875 C-8.49742155 73.83291843 -8.50369723 71.81037055 -8.51097107 69.78782654 C-8.52138284 65.54845699 -8.51680294 61.30942294 -8.50219727 57.07006836 C-8.48501395 51.63790372 -8.50849532 46.20679724 -8.54368687 40.77475071 C-8.56565094 36.59768161 -8.56422167 32.42086605 -8.55592155 28.24375725 C-8.55510139 26.2410866 -8.56197728 24.23839746 -8.57669258 22.23578072 C-8.59411881 19.43460259 -8.57961205 16.63533006 -8.55688477 13.83422852 C-8.56857697 13.00757187 -8.58026917 12.18091522 -8.59231567 11.32920837 C-8.52171533 7.05110287 -8.27385896 5.42780974 -5.56919861 1.92149353 C-2.92578125 -0.0234375 -2.92578125 -0.0234375 0 0 Z " fill="#DFDFDF" transform="translate(26.92578125,221.0234375)"/>
<path d="M0 0 C3.27751832 1.06151643 6.37615989 2.17033655 9.51953125 3.59375 C21.52087949 9.01227454 33.93266629 12.22981605 46.6875 15.3125 C47.5606485 15.52487305 48.433797 15.73724609 49.33340454 15.95605469 C68.72474766 20.6442664 88.07534504 23.67195025 107.875 26.0625 C108.95782257 26.19417572 110.04064514 26.32585144 111.15628052 26.46151733 C127.42479045 28.43204302 143.63336718 30.10883273 160 31 C160.85840988 31.04832977 161.71681976 31.09665955 162.60124207 31.14645386 C184.80108933 32.34252991 207.03393595 32.15315667 229.2578125 32.13037109 C234.871647 32.12467425 240.48543412 32.12806443 246.09926701 32.13380241 C279.06448353 32.23011597 279.06448353 32.23011597 312 31 C313.29614227 30.92298859 313.29614227 30.92298859 314.61846924 30.84442139 C320.27136255 30.49594531 325.91715419 30.0785008 331.5625 29.625 C332.80719055 29.52646225 332.80719055 29.52646225 334.07702637 29.42593384 C359.3307175 27.41549077 384.16125541 23.93580906 409.06842041 19.3548584 C410.81896925 19.0332579 412.57032922 18.71608041 414.32177734 18.39941406 C426.49662475 16.15452026 438.20033717 12.8337097 449.9375 8.9375 C450.90618515 8.61682556 450.90618515 8.61682556 451.8944397 8.28967285 C458.8876497 5.9567755 465.46581266 3.40469689 472 0 C472.66 0 473.32 0 474 0 C474.23184797 12.65632293 474.40945671 25.31213968 474.51812172 37.97015476 C474.57028069 43.84813577 474.64100517 49.72466263 474.75439453 55.60180664 C474.86316903 61.27535687 474.92286592 66.94751007 474.94877243 72.62202263 C474.96722966 74.78513525 475.00327546 76.94817254 475.05730057 79.11068916 C475.46398271 96.06597203 475.46398271 96.06597203 471.84234619 100.85041809 C469.26393647 102.69664939 466.9590404 103.8891322 464 105 C462.71696367 105.6645311 461.43552264 106.33215828 460.15625 107.00390625 C441.87447052 114.79710071 423.45667862 119.93536836 404 124 C403.10877441 124.18804199 402.21754883 124.37608398 401.29931641 124.56982422 C348.29035083 135.46628211 293.37134905 136.26498532 239.4797821 136.30962753 C236.37058969 136.31244732 233.26141002 136.31796901 230.15222168 136.32363892 C195.7393861 136.36905831 161.25356257 135.78931094 127 132.1875 C126.17586609 132.10385193 125.35173218 132.02020386 124.50262451 131.934021 C37.59827208 123.08503194 37.59827208 123.08503194 5 102 C4.12853836 101.49728577 3.25707672 100.99457153 2.35920715 100.47662354 C-1.17332331 96.76828106 -0.66619327 93.4955145 -0.56762695 88.54980469 C-0.56835709 87.59337067 -0.56908722 86.63693665 -0.56983948 85.65151978 C-0.56635681 82.49106071 -0.52746249 79.3320765 -0.48828125 76.171875 C-0.47895557 73.98041591 -0.4718383 71.78894639 -0.46684265 69.59747314 C-0.44775377 63.83011077 -0.39863586 58.06337821 -0.34332275 52.29626465 C-0.29217152 46.41113811 -0.26933738 40.52590977 -0.24414062 34.640625 C-0.19051962 23.09347332 -0.1051833 11.54678903 0 0 Z " fill="#DFDFDF" transform="translate(19,96)"/>
<path d="M0 0 C4.03749186 0.0109377 8.07495125 0.01041973 12.11245537 0.00999641 C59.6922627 0.01116731 59.6922627 0.01116731 78.58650208 1.97673035 C81.05814131 2.22015258 83.51819164 2.36367353 86.00042725 2.44171143 C86.87263916 2.47313232 87.74485107 2.50455322 88.64349365 2.53692627 C89.54374268 2.56866943 90.4439917 2.6004126 91.371521 2.63311768 C99.31330057 2.95811116 107.1140366 3.57313708 114.996521 4.59796143 C118.84488529 5.09411834 122.69824336 5.49934639 126.559021 5.88702393 C138.82076359 7.12073984 150.77684415 8.50730051 162.809021 11.19561768 C164.34186221 11.4900044 165.87580705 11.77868023 167.4105835 12.06280518 C221.20932227 22.10106925 221.20932227 22.10106925 235.809021 38.19561768 C233.55168272 44.66569554 225.58981695 47.30304483 219.809021 50.19561768 C169.68412747 73.73999623 109.3411258 75.80436704 54.809021 78.19561768 C54.11973511 78.22591064 53.43044922 78.25620361 52.72027588 78.28741455 C15.1417906 79.90707988 -22.61655519 79.88261344 -60.190979 78.19561768 C-60.85605469 78.16639221 -61.52113037 78.13716675 -62.20635986 78.10705566 C-203.11505169 71.86229598 -203.11505169 71.86229598 -238.190979 40.19561768 C-238.190979 39.53561768 -238.190979 38.87561768 -238.190979 38.19561768 C-221.68405009 23.47532107 -196.82449886 18.16238792 -175.85357666 13.76153564 C-173.42182182 13.24468183 -170.99992872 12.69648521 -168.57769775 12.13702393 C-155.85957851 9.29514632 -143.00064222 7.89025881 -130.05938721 6.50201416 C-129.31416809 6.42186066 -128.56894897 6.34170715 -127.80114746 6.25912476 C-125.75247887 6.04046673 -123.70330969 5.82651365 -121.65411377 5.612854 C-118.78067935 5.26666441 -116.02260462 4.77233192 -113.190979 4.19561768 C-75.72138238 0.01695229 -37.6448883 -0.12879144 0 0 Z " fill="#DFDFDF" transform="translate(257.19097900390625,31.80438232421875)"/>
<path d="M0 0 C4.85318063 1.52785316 9.62335212 3.24469877 14.375 5.0625 C13.385 5.5575 13.385 5.5575 12.375 6.0625 C12.32028385 15.08614049 12.30867916 24.1085192 12.35165405 33.13222694 C12.37026625 37.32273507 12.37419646 41.51217201 12.34423828 45.70263672 C12.3158545 49.74921577 12.32647526 53.79400835 12.36380005 57.84049606 C12.37122935 59.38179534 12.36475729 60.92322815 12.34396362 62.46440506 C11.95735254 70.85547224 11.95735254 70.85547224 15.08670044 78.30340576 C17.13100549 79.87357261 19.03768386 80.98896466 21.375 82.0625 C22.66440464 82.77021034 23.9535201 83.47844812 25.2421875 84.1875 C26.57186668 84.8257063 27.90812807 85.45034501 29.25 86.0625 C30.35335693 86.56885986 30.35335693 86.56885986 31.47900391 87.08544922 C53.26832985 96.85020971 76.92094603 101.25034455 100.375 105.0625 C101.21450195 105.21138672 102.05400391 105.36027344 102.91894531 105.51367188 C111.65878026 107.04009905 120.43363776 108.10417719 129.25 109.0625 C130.04745636 109.14932037 130.84491272 109.23614075 131.66653442 109.32559204 C149.44637689 111.23470578 167.2314034 112.28398241 185.09637451 112.97393799 C187.2689986 113.05838011 189.44137765 113.14760192 191.61376953 113.23779297 C214.03716943 114.14639612 236.47503546 114.16414168 258.91326904 114.18498993 C261.21529431 114.18746272 263.51731324 114.19141956 265.81933594 114.19561768 C287.92977541 114.23020867 310.01846647 114.04856654 332.0625 112.125 C333.1033374 112.03710205 334.1441748 111.9492041 335.21655273 111.85864258 C337.30768861 111.68029649 339.39860333 111.49933292 341.48925781 111.31542969 C344.062545 111.08988607 346.63647555 110.8756474 349.2109375 110.6640625 C385.95780209 107.52317421 424.25476141 103.79464535 458.87109375 90.3515625 C462.375 89.0625 462.375 89.0625 465.375 89.0625 C465.375 61.3425 465.375 33.6225 465.375 5.0625 C465.705 5.0625 466.035 5.0625 466.375 5.0625 C466.53725497 16.82359397 466.66160235 28.58442132 466.7376852 40.34640694 C466.77420332 45.80816327 466.82372835 51.2691534 466.90307617 56.73046875 C466.97918573 62.00194694 467.02100098 67.27268866 467.0391407 72.54467392 C467.05206588 74.55499745 467.07730679 76.56528106 467.1151104 78.57529068 C467.16600531 81.39368721 467.17292082 84.20904923 467.16967773 87.02783203 C467.20742813 88.27185036 467.20742813 88.27185036 467.24594116 89.54100037 C467.20334797 92.9667098 467.10337943 95.17434351 464.88432503 97.88016891 C461.05743583 101.23529725 456.81304797 103.77708235 452.25 106 C451.22193237 106.50249268 451.22193237 106.50249268 450.1730957 107.01513672 C432.78531952 115.22791331 414.12729685 119.28069181 395.375 123.0625 C394.44107422 123.25440918 393.50714844 123.44631836 392.54492188 123.64404297 C368.5206557 128.52756286 344.17636304 131.01966647 319.75 132.75 C318.89410278 132.81075714 318.03820557 132.87151428 317.15637207 132.93411255 C296.72276091 134.36273575 276.32002905 135.22080428 255.8359375 135.265625 C253.83380614 135.27264956 251.831675 135.27973636 249.82954407 135.28688049 C243.46969273 135.30626622 237.10987791 135.31131427 230.75 135.3125 C229.12477102 135.31316278 229.12477102 135.31316278 227.46670914 135.31383896 C194.35322756 135.3209203 161.37377463 135.12405419 128.375 132.0625 C127.42022766 131.97528687 126.46545532 131.88807373 125.48175049 131.79821777 C21.66187398 122.21828593 21.66187398 122.21828593 -6.12023163 97.88173103 C-8.84021316 94.59333469 -8.58572097 91.2212252 -8.49902344 87.10717773 C-8.50807709 86.22675812 -8.51713074 85.3463385 -8.52645874 84.4392395 C-8.54700709 81.54045484 -8.51699822 78.64473034 -8.484375 75.74609375 C-8.48401114 73.72640389 -8.48601954 71.70671234 -8.49029541 69.68702698 C-8.49158884 65.45931257 -8.4686446 61.23263868 -8.42773438 57.00512695 C-8.3766275 51.58861244 -8.37886457 46.17373284 -8.39834213 40.75706387 C-8.40864215 36.58850414 -8.39421484 32.42031977 -8.37195587 28.2518177 C-8.3635969 26.254758 -8.36210048 24.2576573 -8.36760712 22.26058769 C-8.37089201 19.46904132 -8.34174914 16.6796769 -8.30371094 13.88842773 C-8.31069 13.06491318 -8.31766907 12.24139862 -8.32485962 11.39292908 C-8.22975204 7.11663979 -7.97154028 5.50656949 -5.24664307 2.01478577 C-2.625 0.0625 -2.625 0.0625 0 0 Z " fill="#BCBCBC" transform="translate(26.625,344.9375)"/>
<path d="M0 0 C2.90755682 0.93261256 5.68986591 1.98735422 8.51953125 3.12890625 C9.86688354 3.67140015 9.86688354 3.67140015 11.24145508 4.22485352 C11.9248999 4.50127686 12.60834473 4.7777002 13.3125 5.0625 C13.29473511 5.93866974 13.27697021 6.81483948 13.25866699 7.71755981 C13.09818484 15.98594065 12.97647982 24.25379655 12.89800262 32.52337837 C12.85629846 36.7747264 12.79976429 41.02478485 12.70898438 45.27539062 C12.62187761 49.37982665 12.57418996 53.4830249 12.55348206 57.58831406 C12.53873145 59.15214399 12.50992381 60.71590819 12.46665955 62.27920914 C11.94215124 70.75403355 11.94215124 70.75403355 15.00280762 78.31037903 C17.05411823 79.88609224 18.96567336 80.98841781 21.3125 82.0625 C22.67859924 82.82933694 24.04338883 83.59851661 25.40625 84.37109375 C45.58400264 94.38411386 67.25235736 99.15941942 89.3125 103.0625 C90.84559814 103.33489502 90.84559814 103.33489502 92.40966797 103.61279297 C115.12434858 107.58363968 137.96518752 109.8784381 160.9375 111.6875 C161.71796692 111.7500296 162.49843384 111.8125592 163.30255127 111.87698364 C191.27831855 114.09622404 219.26462767 114.34219345 247.3125 114.375 C248.77004637 114.37716774 248.77004637 114.37716774 250.25703812 114.37937927 C301.5042105 114.4407551 353.81317276 113.61496679 404.3125 104.0625 C406.32017999 103.70238547 408.32799775 103.34303833 410.3359375 102.984375 C427.37845958 99.8705939 444.2094361 96.15206912 460.3515625 89.7265625 C462.3125 89.0625 462.3125 89.0625 465.3125 89.0625 C465.3125 61.3425 465.3125 33.6225 465.3125 5.0625 C465.6425 5.0625 465.9725 5.0625 466.3125 5.0625 C466.47475497 16.82359397 466.59910235 28.58442132 466.6751852 40.34640694 C466.71170332 45.80816327 466.76122835 51.2691534 466.84057617 56.73046875 C466.91668573 62.00194694 466.95850098 67.27268866 466.9766407 72.54467392 C466.98956588 74.55499745 467.01480679 76.56528106 467.0526104 78.57529068 C467.10350531 81.39368721 467.11042082 84.20904923 467.10717773 87.02783203 C467.14492813 88.27185036 467.14492813 88.27185036 467.18344116 89.54100037 C467.14084797 92.9667098 467.04087943 95.17434351 464.82182503 97.88016891 C460.9950077 101.23523425 456.75059428 103.77733149 452.1875 106 C451.49994629 106.33572021 450.81239258 106.67144043 450.10400391 107.01733398 C415.0982365 123.54027396 374.63396637 127.49108503 336.5625 131.25 C335.3944281 131.36835709 335.3944281 131.36835709 334.20275879 131.48910522 C301.00545178 134.80383025 267.66904551 135.44432123 234.33190918 135.38055801 C231.32080023 135.37489812 228.30969697 135.3720894 225.29858398 135.36947632 C44.05528379 135.14125473 44.05528379 135.14125473 -5.82823181 98.48960876 C-8.52185533 94.97332355 -8.25443947 91.58719561 -8.22094727 87.33422852 C-8.22956284 86.45410095 -8.23817841 85.57397339 -8.24705505 84.66717529 C-8.26975465 81.7582863 -8.26296859 78.85035763 -8.25390625 75.94140625 C-8.2591403 73.91885593 -8.26541598 71.89630805 -8.27268982 69.87376404 C-8.28310159 65.63439449 -8.27852169 61.39536044 -8.26391602 57.15600586 C-8.2467327 51.72384122 -8.27021407 46.29273474 -8.30540562 40.86068821 C-8.32736969 36.68361911 -8.32594042 32.50680355 -8.3176403 28.32969475 C-8.31682014 26.3270241 -8.32369603 24.32433496 -8.33841133 22.32171822 C-8.35583756 19.52054009 -8.3413308 16.72126756 -8.31860352 13.92016602 C-8.33029572 13.09350937 -8.34198792 12.26685272 -8.35403442 11.41514587 C-8.28328764 7.12816677 -8.04122217 5.51738384 -5.31602478 2.01280212 C-2.6875 0.0625 -2.6875 0.0625 0 0 Z " fill="#BCBCBC" transform="translate(26.6875,220.9375)"/>
<path d="M0 0 C4.71437718 1.51271293 9.28958585 3.26772954 13.875 5.125 C14.56335937 5.40214844 15.25171875 5.67929688 15.9609375 5.96484375 C17.64126501 6.64164233 19.32072342 7.32059803 21 8 C20.98223511 8.85111359 20.96447021 9.70222717 20.94616699 10.57913208 C20.7856681 18.6120479 20.66397176 26.64442311 20.58550262 34.67857552 C20.54380261 38.80887535 20.4872771 42.93784729 20.39648438 47.06738281 C20.30936117 51.05511319 20.26168684 55.04156924 20.24098206 59.03017807 C20.22623425 60.54935647 20.19743188 62.06846738 20.15415955 63.58710098 C19.64351568 71.88048883 19.64351568 71.88048883 22.72505188 79.23640442 C24.76171514 80.79198842 26.68248329 81.92008187 29 83 C30.02480469 83.61746094 31.04960938 84.23492187 32.10546875 84.87109375 C48.32587657 93.11492586 65.65393673 97.77499393 83.40332031 101.45458984 C85.76277689 101.95017333 88.1116194 102.47831328 90.4609375 103.01953125 C115.34345978 108.58383783 141.11214579 110.91930145 166.5 112.75 C167.72268082 112.83847702 167.72268082 112.83847702 168.97006226 112.92874146 C174.64427511 113.33168624 180.32062783 113.67868062 186 114 C186.82576538 114.04872253 187.65153076 114.09744507 188.50231934 114.14764404 C206.58570365 115.18644735 224.67198973 115.16038235 242.77795792 115.12917709 C245.28038751 115.12494865 247.78281615 115.12201653 250.2852478 115.11929321 C311.66125624 115.04365256 374.50854192 114.57622039 434.6875 100.8125 C435.57542236 100.61180908 436.46334473 100.41111816 437.37817383 100.2043457 C445.86625115 98.19426395 454.0923931 95.4702912 462.32104492 92.59106445 C463.28115479 92.25550537 464.24126465 91.91994629 465.23046875 91.57421875 C466.08020264 91.27088623 466.92993652 90.96755371 467.80541992 90.6550293 C470 90 470 90 473 90 C472.67 60.3 472.34 30.6 472 0 C472.66 0 473.32 0 474 0 C474.23184797 12.65632293 474.40945671 25.31213968 474.51812172 37.97015476 C474.57028069 43.84813577 474.64100517 49.72466263 474.75439453 55.60180664 C474.86316903 61.27535687 474.92286592 66.94751007 474.94877243 72.62202263 C474.96722966 74.78513525 475.00327546 76.94817254 475.05730057 79.11068916 C475.46398271 96.06597203 475.46398271 96.06597203 471.84234619 100.85041809 C469.26393647 102.69664939 466.9590404 103.8891322 464 105 C462.71696367 105.6645311 461.43552264 106.33215828 460.15625 107.00390625 C441.87447052 114.79710071 423.45667862 119.93536836 404 124 C403.10877441 124.18804199 402.21754883 124.37608398 401.29931641 124.56982422 C348.29035083 135.46628211 293.37134905 136.26498532 239.4797821 136.30962753 C236.37058969 136.31244732 233.26141002 136.31796901 230.15222168 136.32363892 C195.7393861 136.36905831 161.25356257 135.78931094 127 132.1875 C126.17586609 132.10385193 125.35173218 132.02020386 124.50262451 131.934021 C37.59827208 123.08503194 37.59827208 123.08503194 5 102 C4.12853836 101.49728577 3.25707672 100.99457153 2.35920715 100.47662354 C-1.17332331 96.76828106 -0.66619327 93.4955145 -0.56762695 88.54980469 C-0.56835709 87.59337067 -0.56908722 86.63693665 -0.56983948 85.65151978 C-0.56635681 82.49106071 -0.52746249 79.3320765 -0.48828125 76.171875 C-0.47895557 73.98041591 -0.4718383 71.78894639 -0.46684265 69.59747314 C-0.44775377 63.83011077 -0.39863586 58.06337821 -0.34332275 52.29626465 C-0.29217152 46.41113811 -0.26933738 40.52590977 -0.24414062 34.640625 C-0.19051962 23.09347332 -0.1051833 11.54678903 0 0 Z " fill="#BCBCBC" transform="translate(19,96)"/>
<path d="M0 0 C0.8765625 0.47953125 1.753125 0.9590625 2.65625 1.453125 C4.13456845 2.12642375 5.61832105 2.78784037 7.10546875 3.44140625 C7.94400391 3.81555664 8.78253906 4.18970703 9.64648438 4.57519531 C19.39685754 8.8784918 29.00473687 12.37301981 39.35644531 14.89257812 C41.73000249 15.47110119 44.09509782 16.07824646 46.4609375 16.6875 C70.31459601 22.71726533 94.31774215 26.1702734 118.80078125 28.14355469 C121.65625 28.453125 121.65625 28.453125 123.5324707 28.95800781 C126.91829303 29.7473454 130.36275079 29.79176509 133.82421875 29.953125 C134.61846756 29.99373047 135.41271637 30.03433594 136.23103333 30.07617188 C138.76843401 30.20555889 141.30604833 30.32979294 143.84375 30.453125 C146.36357178 30.57688028 148.88330959 30.70185819 151.40290833 30.83007812 C152.96778599 30.90960254 154.53279495 30.98660157 156.09794617 31.06054688 C159.6974386 31.24239959 163.25224394 31.50912085 166.82859802 31.9596405 C171.64660405 32.50323487 176.40836355 32.61476443 181.25341797 32.63012695 C182.17256391 32.63659335 183.09170984 32.64305975 184.03870869 32.6497221 C187.07528308 32.66910722 190.11182041 32.68082337 193.1484375 32.69140625 C194.20523523 32.69625031 195.26203297 32.70109436 196.35085487 32.70608521 C204.41098181 32.7426574 212.47104771 32.75842552 220.53125 32.765625 C221.71409702 32.76692287 222.89694405 32.76822075 224.11563492 32.76955795 C334.39828353 34.3903994 334.39828353 34.3903994 440.65625 8.453125 C442.63625 10.103125 444.61625 11.753125 446.65625 13.453125 C444.39891172 19.92320286 436.43704595 22.56055216 430.65625 25.453125 C380.53135648 48.99750356 320.1883548 51.06187436 265.65625 53.453125 C264.96696411 53.48341797 264.27767822 53.51371094 263.56750488 53.54492188 C225.9890196 55.16458721 188.23067381 55.14012077 150.65625 53.453125 C149.99117432 53.42389954 149.32609863 53.39467407 148.64086914 53.36456299 C7.73217732 47.11980331 7.73217732 47.11980331 -27.34375 15.453125 C-27.34375 14.793125 -27.34375 14.133125 -27.34375 13.453125 C-22.10212123 8.77882546 -15.80413767 5.46122084 -9.53125 2.390625 C-8.89759521 2.06747314 -8.26394043 1.74432129 -7.61108398 1.41137695 C-4.86724583 0.12295024 -3.00717592 -0.70167438 0 0 Z " fill="#BCBCBC" transform="translate(46.34375,56.546875)"/>
</svg>
