<?xml version="1.0" encoding="UTF-8"?>
<svg version="1.1" xmlns="http://www.w3.org/2000/svg" width="512" height="512">
<path d="M0 0 C1.01790619 0.00215515 2.03581238 0.0043103 3.08456421 0.00653076 C17.69363523 0.05620146 32.02575853 0.30709809 46.375 3.3125 C47.34985352 3.51117676 48.32470703 3.70985352 49.32910156 3.91455078 C97.7109774 14.03517194 141.69928269 35.9516877 177.375 70.3125 C178.3640332 71.26068604 178.3640332 71.26068604 179.37304688 72.22802734 C188.86130305 81.37247479 197.6012044 90.66984009 205.375 101.3125 C206.23306152 102.46355017 207.09113451 103.61459177 207.94921875 104.765625 C213.98736829 112.95680614 219.34595521 121.47054105 224.375 130.3125 C224.73948242 130.94430176 225.10396484 131.57610352 225.47949219 132.22705078 C247.08534998 169.97532572 256.85198095 212.74189997 256.6875 255.9375 C256.68534485 256.95540619 256.6831897 257.97331238 256.68096924 259.02206421 C256.63129854 273.63113523 256.38040191 287.96325853 253.375 302.3125 C253.07698486 303.77478027 253.07698486 303.77478027 252.77294922 305.26660156 C242.65232806 353.6484774 220.7358123 397.63678269 186.375 433.3125 C185.74287598 433.97185547 185.11075195 434.63121094 184.45947266 435.31054688 C175.31502521 444.79880305 166.01765991 453.5387044 155.375 461.3125 C154.22394983 462.17056152 153.07290823 463.02863451 151.921875 463.88671875 C143.73224019 469.92427396 135.22961724 475.30707302 126.375 480.3125 C125.66778809 480.7146875 124.96057617 481.116875 124.23193359 481.53125 C101.09654164 494.5566741 75.92537591 503.30551461 49.9375 508.625 C49.21860596 508.77235596 48.49971191 508.91971191 47.7590332 509.0715332 C33.08339502 511.86090125 18.55831162 512.66142619 3.64770508 512.62817383 C0.70811513 512.6250221 -2.2304558 512.64854926 -5.16992188 512.67382812 C-18.54306192 512.71848737 -31.43916711 511.51301542 -44.625 509.3125 C-46.33055054 509.03031616 -46.33055054 509.03031616 -48.07055664 508.74243164 C-91.33802759 500.97044532 -132.38793216 480.98345309 -165.625 452.3125 C-166.37007813 451.67828125 -167.11515625 451.0440625 -167.8828125 450.390625 C-181.38779833 438.57948485 -194.05918743 425.82889772 -204.625 411.3125 C-205.48149066 410.16255169 -206.33826433 409.01281411 -207.1953125 407.86328125 C-213.23534209 399.67315742 -218.61867614 391.16870382 -223.625 382.3125 C-224.0271875 381.60528809 -224.429375 380.89807617 -224.84375 380.16943359 C-237.8691741 357.03404164 -246.61801461 331.86287591 -251.9375 305.875 C-252.08485596 305.15610596 -252.23221191 304.43721191 -252.3840332 303.6965332 C-255.35789088 288.05024391 -255.99800362 272.57681954 -255.9375 256.6875 C-255.93534485 255.66959381 -255.9331897 254.65168762 -255.93096924 253.60293579 C-255.88129854 238.99386477 -255.63040191 224.66174147 -252.625 210.3125 C-252.42632324 209.33764648 -252.22764648 208.36279297 -252.02294922 207.35839844 C-241.90232806 158.9765226 -219.9858123 114.98821731 -185.625 79.3125 C-184.99287598 78.65314453 -184.36075195 77.99378906 -183.70947266 77.31445312 C-174.56502521 67.82619695 -165.26765991 59.0862956 -154.625 51.3125 C-153.47394983 50.45443848 -152.32290823 49.59636549 -151.171875 48.73828125 C-142.98224019 42.70072604 -134.47961724 37.31792698 -125.625 32.3125 C-124.91778809 31.9103125 -124.21057617 31.508125 -123.48193359 31.09375 C-100.34654164 18.0683259 -75.17537591 9.31948539 -49.1875 4 C-48.46860596 3.85264404 -47.74971191 3.70528809 -47.0090332 3.5534668 C-31.36274391 0.57960912 -15.88931954 -0.06050362 0 0 Z " fill="#CC6699" transform="translate(255.625,-0.3125)"/>
<path d="M0 0 C10.14468681 9.59987956 16.9901887 20.7644443 17.5078125 35.01953125 C17.51567334 37.13671857 17.50766799 39.25401997 17.484375 41.37109375 C17.49597656 42.4178125 17.50757813 43.46453125 17.51953125 44.54296875 C17.43190621 68.20173063 5.2596117 89.59924401 -9.890625 106.99609375 C-10.42429687 107.6509375 -10.95796875 108.30578125 -11.5078125 108.98046875 C-35.88261372 138.75725294 -76.11986189 151.26773529 -112.890625 155.99609375 C-136.77739072 157.21164124 -159.6866335 157.34462804 -178.953125 140.93359375 C-183.47517503 136.64344372 -187.16719007 132.10645397 -188.890625 125.99609375 C-188.515625 123.18359375 -188.515625 123.18359375 -187.890625 120.99609375 C-183.61752078 121.50231516 -181.76313054 122.71439613 -178.765625 125.74609375 C-166.83984011 136.8370737 -151.26865979 138.27615522 -135.71484375 138.15234375 C-129.99587049 137.91867784 -124.51140742 137.03115625 -118.890625 135.99609375 C-117.68148437 135.81304687 -116.47234375 135.63 -115.2265625 135.44140625 C-98.04659462 132.65267399 -82.0883891 126.37540152 -66.890625 117.99609375 C-66.25817871 117.65352539 -65.62573242 117.31095703 -64.97412109 116.95800781 C-54.88364795 111.43821292 -46.3399653 104.77061153 -37.890625 96.99609375 C-37.13136719 96.31933594 -36.37210937 95.64257812 -35.58984375 94.9453125 C-21.79912158 82.0389653 -11.15324103 63.41050721 -10.515625 44.30859375 C-10.83991502 35.61512673 -13.34950475 29.38079126 -19.421875 23.06640625 C-37.54243135 7.87037007 -65.97234935 9.55764658 -88.14648438 11.24365234 C-99.31103803 12.36269724 -110.1786815 14.65614104 -120.890625 17.99609375 C-121.66841309 18.23312012 -122.44620117 18.47014648 -123.24755859 18.71435547 C-136.61963089 22.8258612 -149.28365037 27.95001852 -161.890625 33.99609375 C-162.70354004 34.3813623 -163.51645508 34.76663086 -164.35400391 35.16357422 C-190.79144441 47.75058486 -216.30922124 63.06896559 -237.890625 82.99609375 C-238.86386719 83.88683594 -239.83710938 84.77757812 -240.83984375 85.6953125 C-255.75953507 99.94913196 -267.84456877 118.50125385 -268.453125 139.68359375 C-268.43937107 152.48238957 -263.00338906 164.27365428 -254.890625 173.99609375 C-254.1378125 174.8984375 -253.385 175.80078125 -252.609375 176.73046875 C-246.90849306 183.26122591 -240.70912421 188.67433827 -233.890625 193.99609375 C-232.69758911 194.95239757 -231.50626794 195.91084338 -230.31640625 196.87109375 C-224.86831761 201.2637565 -219.40662677 205.62597847 -213.81811523 209.83911133 C-208.82134167 213.61218524 -204.06402104 217.51328114 -199.453125 221.74609375 C-198.94628174 222.20725586 -198.43943848 222.66841797 -197.91723633 223.14355469 C-195.3122629 225.54948567 -193.06855185 228.02110137 -190.890625 230.80859375 C-188.17325812 233.24604792 -188.17325812 233.24604792 -185.39453125 232.9765625 C-182.18557406 232.45239021 -179.05496328 231.74281844 -175.890625 230.99609375 C-151.77159005 226.3062814 -123.88384033 226.11345727 -102.30078125 239.31640625 C-89.57334004 248.186422 -77.82115019 260.05403673 -74.890625 275.99609375 C-74.07436141 287.24982619 -74.70238097 297.28738246 -82.140625 306.30859375 C-86.70606752 311.0797751 -92.32161537 316.39822654 -98.890625 317.99609375 C-101.703125 317.62109375 -101.703125 317.62109375 -103.890625 316.99609375 C-102.40172083 313.22808487 -100.33509685 311.63779251 -97.078125 309.30859375 C-91.16137396 304.65054373 -87.4606635 300.49492701 -86.4921875 292.8515625 C-86.18622426 282.7430078 -88.14612077 275.50810633 -94.5859375 267.72265625 C-95.890625 265.99609375 -95.890625 265.99609375 -96.890625 262.99609375 C-98.75183772 261.93240211 -98.75183772 261.93240211 -100.890625 260.99609375 C-102.12546129 260.08707901 -103.35414036 259.16966837 -104.578125 258.24609375 C-123.39006298 245.643022 -150.09859186 244.31631404 -171.7734375 248.4609375 C-173.92640124 248.92465325 -173.92640124 248.92465325 -175.890625 249.99609375 C-175.60695068 250.76775879 -175.32327637 251.53942383 -175.03100586 252.33447266 C-172.12349663 260.85865963 -171.28603033 268.40031 -171.453125 277.37109375 C-171.46996338 278.64968262 -171.48680176 279.92827148 -171.50415039 281.24560547 C-172.02003954 305.39537744 -180.47646906 324.84209617 -197.09765625 342.31640625 C-214.21367421 358.51152529 -235.33947931 365.64464615 -258.57421875 365.23828125 C-267.68380976 364.91742033 -274.51826019 363.44916712 -281.17578125 356.94140625 C-289.38733126 347.62625385 -291.673548 337.2392336 -291.23828125 325.02734375 C-290.1555439 308.69702564 -281.07861171 296.12292304 -269.890625 284.99609375 C-269.04628906 284.15175781 -268.20195312 283.30742187 -267.33203125 282.4375 C-250.70146255 266.61694378 -229.48335288 253.9518655 -208.890625 243.99609375 C-210.20125997 240.97530833 -211.38760589 239.3278911 -214.1015625 237.47265625 C-214.75938721 237.01608643 -215.41721191 236.5595166 -216.0949707 236.08911133 C-217.16944458 235.36244263 -217.16944458 235.36244263 -218.265625 234.62109375 C-219.01223389 234.10506592 -219.75884277 233.58903809 -220.52807617 233.05737305 C-222.13635725 231.94586217 -223.74704614 230.83782885 -225.35986328 229.73291016 C-229.65827241 226.78298901 -233.93086938 223.79621624 -238.203125 220.80859375 C-239.05237549 220.2148999 -239.90162598 219.62120605 -240.77661133 219.00952148 C-267.73245318 200.11494514 -301.14436406 176.67042415 -307.890625 141.99609375 C-310.22384154 120.11740752 -297.79986456 98.63248408 -284.890625 81.99609375 C-282.00589333 78.54267094 -278.98082434 75.26457383 -275.890625 71.99609375 C-274.80282841 70.70818363 -273.71934517 69.41661553 -272.640625 68.12109375 C-231.17447434 20.87997691 -154.031722 -16.23162274 -92.30078125 -21.79296875 C-60.80381596 -23.53165473 -25.12140304 -21.62295261 0 0 Z " fill="#FEFDFD" transform="translate(400.890625,84.00390625)"/>
<path d="M0 0 C3.60385501 17.85838864 2.33030942 34.43042342 -7.16015625 50.3203125 C-16.82424741 64.39582532 -28.89566476 75.7646408 -46 80 C-56.91651625 81.35248874 -56.91651625 81.35248874 -61.75 78.21484375 C-65.12614667 74.89144937 -66.30225956 72.28000486 -66.4375 67.5625 C-66.04529856 50.89393884 -53.91691979 36.93250881 -42.765625 25.76171875 C-33.06709715 16.60018992 -21.7127553 9.387112 -10.1875 2.75 C-9.17405518 2.15735352 -9.17405518 2.15735352 -8.14013672 1.55273438 C-3.36168258 -1.12056086 -3.36168258 -1.12056086 0 0 Z " fill="#CC679A" transform="translate(206,343)"/>
</svg>
